<svg viewBox="0 0 338.879 499.199" fill="none" stroke-linecap="square" stroke-miterlimit="10" xmlns="http://www.w3.org/2000/svg"><clipPath id="a"><path d="M0 0h338.88v499.2H0V0z"/></clipPath><g clip-path="url(#a)"><path fill="#fff" d="M0 0h338.88v499.2H0z" fill-rule="evenodd"/><path fill="none" d="M299.832 5.853a7.89 7.89 0 0 1 7.89 7.89V144.45a7.89 7.89 0 0 0 7.89 7.89 7.89 7.89 0 0 0-7.89 7.89V290.94a7.89 7.89 0 0 1-7.89 7.89z"/><path fill="none" d="M299.832 5.853a7.89 7.89 0 0 1 7.89 7.89V144.45a7.89 7.89 0 0 0 7.89 7.89 7.89 7.89 0 0 0-7.89 7.89V290.94a7.89 7.89 0 0 1-7.89 7.89"/><path stroke="#595959" stroke-linejoin="round" stroke-linecap="butt" d="M299.832 5.853a7.89 7.89 0 0 1 7.89 7.89V144.45a7.89 7.89 0 0 0 7.89 7.89 7.89 7.89 0 0 0-7.89 7.89V290.94a7.89 7.89 0 0 1-7.89 7.89"/><path fill="none" d="M299.83 302.297a7.89 7.89 0 0 1 7.89 7.89v78.393a7.89 7.89 0 0 0 7.889 7.89 7.89 7.89 0 0 0-7.89 7.89v78.393a7.89 7.89 0 0 1-7.89 7.89z"/><path fill="none" d="M299.83 302.297a7.89 7.89 0 0 1 7.89 7.89v78.393a7.89 7.89 0 0 0 7.889 7.89 7.89 7.89 0 0 0-7.89 7.89v78.393a7.89 7.89 0 0 1-7.89 7.89"/><path stroke="#595959" stroke-linejoin="round" stroke-linecap="butt" d="M299.83 302.297a7.89 7.89 0 0 1 7.89 7.89v78.393a7.89 7.89 0 0 0 7.889 7.89 7.89 7.89 0 0 0-7.89 7.89v78.393a7.89 7.89 0 0 1-7.89 7.89"/><path fill="none" d="M96.932 301.75c-10.672 0-19.323-8.65-19.323-19.322v-28.22c0-10.672-8.651-19.323-19.323-19.323 10.672 0 19.323-8.652 19.323-19.323v-28.22c0-10.673 8.651-19.324 19.323-19.324z"/><path fill="none" d="M96.932 301.75c-10.672 0-19.323-8.65-19.323-19.322v-28.22c0-10.672-8.651-19.323-19.323-19.323 10.672 0 19.323-8.652 19.323-19.323v-28.22c0-10.673 8.651-19.324 19.323-19.324"/><path stroke="#595959" stroke-linejoin="round" stroke-linecap="butt" d="M96.932 301.75c-10.672 0-19.323-8.65-19.323-19.322v-28.22c0-10.672-8.651-19.323-19.323-19.323 10.672 0 19.323-8.652 19.323-19.323v-28.22c0-10.673 8.651-19.324 19.323-19.324"/><path fill="#d9d2e9" d="M101.64 167.278h193.48V301.01H101.64z" fill-rule="evenodd"/><path stroke="#595959" stroke-width="2" stroke-linejoin="round" stroke-linecap="butt" d="M101.64 167.278h193.48V301.01H101.64z"/><path fill="#b4a7d6" d="M101.64 166.501h193.48v20.347H101.64zM101.64 281.194h193.48v20.347H101.64z" fill-rule="evenodd"/><path fill="#b6d7a8" d="M101.64 301.759h193.48V419.71H101.64z" fill-rule="evenodd"/><path stroke="#595959" stroke-width="2" stroke-linejoin="round" stroke-linecap="butt" d="M101.64 301.759h193.48V419.71H101.64z"/><path fill="#fce5cd" d="M101.64 419.373h193.48v71.18H101.64z" fill-rule="evenodd"/><path stroke="#595959" stroke-width="2" stroke-linejoin="round" stroke-linecap="butt" d="M101.64 419.373h193.48v71.18H101.64z"/><path fill="#fce5cd" d="M101.64 5.853h193.48v71.181H101.64z" fill-rule="evenodd"/><path stroke="#595959" stroke-width="2" stroke-linejoin="round" stroke-linecap="butt" d="M101.64 5.853h193.48v71.181H101.64z"/><path fill="#c9daf8" d="M101.64 76.105h193.48v89.48H101.64z" fill-rule="evenodd"/><path stroke="#595959" stroke-width="2" stroke-linejoin="round" stroke-linecap="butt" d="M101.64 76.105h193.48v89.48H101.64z"/><path fill="#6aa84f" d="M101.64 399.612h193.48v19.023H101.64z" fill-rule="evenodd"/><path fill="none" d="M101.724 5.543h193.48v485.733h-193.48z"/><path stroke="#595959" stroke-width="2" stroke-linejoin="round" stroke-linecap="butt" d="M101.724 5.543h193.48v485.733h-193.48z"/><path fill="none" d="M97.097 164.974c-10.672 0-19.323-8.651-19.323-19.323v-40.693c0-10.672-8.65-19.323-19.323-19.323 10.672 0 19.323-8.651 19.323-19.323V25.62c0-10.671 8.651-19.322 19.323-19.322z"/><path fill="none" d="M97.097 164.974c-10.672 0-19.323-8.651-19.323-19.323v-40.693c0-10.672-8.65-19.323-19.323-19.323 10.672 0 19.323-8.651 19.323-19.323V25.62c0-10.671 8.651-19.322 19.323-19.322"/><path stroke="#595959" stroke-linejoin="round" stroke-linecap="butt" d="M97.097 164.974c-10.672 0-19.323-8.651-19.323-19.323v-40.693c0-10.672-8.65-19.323-19.323-19.323 10.672 0 19.323-8.651 19.323-19.323V25.62c0-10.671 8.651-19.322 19.323-19.322"/><path fill="none" d="M22.278 70.28h40.82v30.71h-40.82z"/><path fill="#000" d="M34.595 88.24V81.57h2.297q.781 0 1.188.094.578.125.984.468.531.454.781 1.157.266.687.266 1.578 0 .765-.172 1.36-.172.577-.453.968-.281.375-.61.594-.328.218-.796.343-.47.11-1.079.11h-2.406zm.89-.78h1.423q.656 0 1.031-.125.375-.125.61-.344.312-.328.484-.844.172-.531.172-1.297 0-1.047-.344-1.61-.344-.562-.828-.75-.36-.14-1.157-.14h-1.39v5.11zm8.894.187q-.454.39-.875.547-.422.156-.907.156-.797 0-1.218-.39-.422-.391-.422-1 0-.344.156-.641.156-.297.422-.469.265-.187.594-.281.234-.063.718-.11 1-.124 1.47-.28v-.22q0-.5-.235-.703-.313-.28-.922-.28-.578 0-.86.202-.28.203-.406.72l-.797-.11q.11-.516.36-.828.25-.329.718-.5.47-.172 1.094-.172.625 0 1 .156.39.14.578.36.188.218.25.562.047.203.047.75v1.094q0 1.14.047 1.453.063.297.219.578h-.86q-.125-.25-.171-.594zm-.063-1.828q-.453.172-1.344.297-.5.078-.718.172-.204.093-.313.265-.11.172-.11.391 0 .328.235.547.25.219.734.219.47 0 .829-.204.375-.218.562-.578.125-.265.125-.812v-.297zm2.094 2.422v-4.844h.735v.734q.28-.515.515-.671.25-.172.531-.172.422 0 .844.265l-.281.766q-.297-.172-.61-.172-.265 0-.484.156-.203.157-.297.453-.14.438-.14.954v2.53h-.813zm4.903-.735.11.72q-.344.077-.61.077-.453 0-.703-.14-.234-.14-.343-.36-.094-.234-.094-.984v-2.781h-.61v-.64h.61V82.21l.812-.5v1.687h.828v.64h-.828v2.829q0 .36.047.469.047.093.14.156.095.047.282.047.14 0 .36-.032z"/><path fill="none" d="M97.097 489.945c-10.672 0-19.323-8.651-19.323-19.323v-54.3c0-10.67-8.65-19.322-19.323-19.322 10.672 0 19.323-8.651 19.323-19.323v-54.299c0-10.672 8.651-19.323 19.323-19.323z"/><path fill="none" d="M97.097 489.945c-10.672 0-19.323-8.651-19.323-19.323v-54.3c0-10.67-8.65-19.322-19.323-19.322 10.672 0 19.323-8.651 19.323-19.323v-54.299c0-10.672 8.651-19.323 19.323-19.323"/><path stroke="#595959" stroke-linejoin="round" stroke-linecap="butt" d="M97.097 489.945c-10.672 0-19.323-8.651-19.323-19.323v-54.3c0-10.67-8.65-19.322-19.323-19.322 10.672 0 19.323-8.651 19.323-19.323v-54.299c0-10.672 8.651-19.323 19.323-19.323"/><path fill="none" d="M-.549 373.234h66.11v42.015H-.548z"/><path fill="#000" d="M14.715 393.053v-6.703h.75v.64q.265-.375.593-.562.344-.188.813-.188.625 0 1.094.329.468.312.703.906.25.578.25 1.265 0 .735-.266 1.329-.265.593-.781.921-.5.313-1.063.313-.406 0-.734-.172-.328-.172-.531-.437v2.359h-.828zm.75-4.25q0 .937.375 1.39.375.438.922.438.546 0 .921-.453.391-.469.391-1.438 0-.937-.375-1.39-.375-.453-.906-.453t-.938.484q-.39.484-.39 1.422zm4.422 2.39v-6.671h.828v6.672h-.828zm5.244-.593q-.453.39-.875.547-.422.156-.906.156-.797 0-1.219-.39-.422-.391-.422-1 0-.344.157-.641.156-.297.422-.469.265-.188.593-.281.235-.063.719-.11 1-.125 1.469-.28v-.22q0-.5-.235-.703-.312-.281-.921-.281-.579 0-.86.203t-.406.719l-.797-.11q.11-.515.36-.828.25-.328.718-.5.469-.172 1.094-.172.625 0 1 .157.39.14.578.36.188.218.25.562.047.203.047.75v1.093q0 1.141.047 1.453.062.297.219.579h-.86q-.125-.25-.172-.594zm-.062-1.828q-.453.172-1.344.297-.5.078-.719.171-.203.094-.312.266-.11.172-.11.39 0 .329.235.548.25.218.734.218.469 0 .828-.203.375-.219.563-.578.125-.266.125-.812v-.297zm3.89 1.687.11.719q-.344.078-.61.078-.452 0-.702-.14-.235-.141-.344-.36-.094-.234-.094-.984v-2.782h-.61v-.64h.61v-1.188l.813-.5v1.688h.828v.64h-.828v2.829q0 .359.047.468.046.094.14.157.094.046.281.046.141 0 .36-.03zm.999.735v-4.204h-.72v-.64h.72v-.516q0-.484.078-.719.125-.312.422-.515t.843-.203q.344 0 .766.093l-.125.704q-.266-.047-.484-.047-.375 0-.532.172-.156.156-.156.593v.438h.938v.64h-.938v4.204h-.812zm2.091-2.422q0-1.344.75-1.985.625-.547 1.516-.547 1 0 1.625.657.64.656.64 1.812 0 .938-.28 1.469-.282.531-.813.828-.531.297-1.172.297-1.016 0-1.64-.64-.626-.657-.626-1.891zm.844 0q0 .937.406 1.406.407.453 1.016.453.61 0 1.016-.469.406-.468.406-1.422 0-.89-.406-1.343-.407-.469-1.016-.469-.61 0-1.016.469-.406.453-.406 1.375zm4.641 2.422v-4.844h.734v.734q.282-.515.516-.672.25-.172.531-.172.422 0 .844.266l-.281.766q-.297-.172-.61-.172-.265 0-.484.156-.203.156-.297.453-.14.438-.14.953v2.532h-.813zm3.106 0v-4.844h.735v.687q.234-.359.61-.578.374-.219.859-.219.546 0 .89.235.344.219.485.625.562-.86 1.484-.86.719 0 1.11.407.39.39.39 1.218v3.329h-.813v-3.047q0-.485-.093-.703-.078-.22-.282-.344-.203-.14-.484-.14-.516 0-.86.343-.327.328-.327 1.078v2.813h-.829v-3.141q0-.547-.203-.813-.187-.28-.656-.28-.344 0-.64.187-.282.172-.422.531-.125.344-.125 1v2.516h-.829zm7.458-2v-.829h2.516v.829h-2.516zM14.21 402.394v-.61q-.454.719-1.344.719-.579 0-1.063-.313-.484-.328-.766-.89-.265-.578-.265-1.313 0-.734.234-1.312.25-.594.735-.906.484-.329 1.078-.329.437 0 .78.188.345.187.563.484v-2.39h.813v6.672h-.766zm-2.594-2.407q0 .922.39 1.391.39.453.938.453.53 0 .906-.437.375-.438.375-1.344 0-1-.39-1.453-.376-.469-.938-.469-.547 0-.922.453-.36.438-.36 1.406zm7.953.844.844.11q-.188.75-.735 1.156-.546.406-1.39.406-1.063 0-1.688-.656-.61-.657-.61-1.828 0-1.22.626-1.891.625-.688 1.625-.688.984 0 1.594.672.609.657.609 1.86v.218h-3.61q.048.797.454 1.22.406.421 1.015.421.454 0 .766-.234.313-.235.5-.766zm-2.687-1.328h2.703q-.063-.61-.313-.906-.39-.469-1.015-.469-.563 0-.954.375-.375.375-.421 1zm4.562 4.75v-6.703h.75v.64q.266-.375.594-.562.344-.188.813-.188.625 0 1.093.329.47.312.703.906.25.578.25 1.265 0 .735-.265 1.329-.266.593-.781.921-.5.313-1.063.313-.406 0-.734-.172-.328-.172-.532-.437v2.359h-.828zm.75-4.25q0 .937.375 1.39.375.438.922.438t.922-.453q.39-.469.39-1.438 0-.937-.374-1.39-.375-.453-.907-.453-.53 0-.937.484-.39.484-.39 1.422zm7.75.828.844.11q-.187.75-.734 1.156-.547.406-1.39.406-1.063 0-1.688-.656-.61-.657-.61-1.828 0-1.22.626-1.891.625-.688 1.625-.688.984 0 1.593.672.61.657.61 1.86v.218h-3.61q.047.797.453 1.22.407.421 1.016.421.453 0 .766-.234.312-.235.5-.766zm-2.687-1.328h2.703q-.062-.61-.312-.906-.39-.469-1.016-.469-.562 0-.953.375-.375.375-.422 1zm4.563 2.89v-4.843h.75v.687q.531-.797 1.531-.797.438 0 .797.172.375.157.547.407.188.25.266.609.047.219.047.797v2.969h-.829v-2.938q0-.5-.093-.75-.094-.25-.344-.39-.234-.157-.563-.157-.515 0-.906.328-.375.328-.375 1.266v2.64h-.828zm8.329 0v-.609q-.454.719-1.344.719-.578 0-1.063-.313-.484-.328-.765-.89-.266-.578-.266-1.313 0-.734.234-1.312.25-.594.735-.906.484-.329 1.078-.329.437 0 .781.188.344.187.563.484v-2.39h.812v6.672h-.765zm-2.594-2.406q0 .922.39 1.391.391.453.938.453.531 0 .906-.437.375-.438.375-1.344 0-1-.39-1.453-.375-.469-.938-.469-.547 0-.922.453-.36.438-.36 1.406zm7.953.844.844.11q-.187.75-.734 1.156-.547.406-1.39.406-1.063 0-1.688-.656-.61-.657-.61-1.828 0-1.22.625-1.891.625-.688 1.625-.688.985 0 1.594.672.61.657.61 1.86v.218h-3.61q.047.797.453 1.22.406.421 1.016.421.453 0 .765-.234.313-.235.5-.766zm-2.687-1.328h2.703q-.063-.61-.313-.906-.39-.469-1.015-.469-.563 0-.953.375-.375.375-.422 1zm4.563 2.89v-4.843h.75v.687q.531-.797 1.531-.797.437 0 .797.172.375.157.547.407.187.25.265.609.047.219.047.797v2.969h-.828v-2.938q0-.5-.094-.75-.093-.25-.343-.39-.235-.157-.563-.157-.516 0-.906.328-.375.328-.375 1.266v2.64h-.828zm6.984-.734.11.719q-.344.078-.61.078-.453 0-.703-.14-.234-.141-.343-.36-.094-.234-.094-.984v-2.782h-.61v-.64h.61v-1.188l.812-.5v1.688h.828v.64h-.828v2.829q0 .359.047.468.047.094.14.157.095.046.282.046.14 0 .36-.03z"/><path fill="none" d="M16.643 218.877h48.976v30.708H16.643z"/><path fill="#000" d="m33.136 234.493.89.219q-.28 1.093-1.015 1.672-.719.562-1.75.562-1.094 0-1.766-.437-.672-.438-1.031-1.266-.344-.844-.344-1.797 0-1.047.39-1.812.407-.782 1.141-1.188.735-.406 1.61-.406 1.015 0 1.687.515.688.516.953 1.438l-.859.203q-.234-.734-.687-1.062-.438-.329-1.11-.329-.765 0-1.281.375-.516.36-.734.985-.204.625-.204 1.281 0 .844.25 1.484.25.641.766.954.531.312 1.14.312.735 0 1.25-.422.516-.437.704-1.281zm1.252 2.453 1.937-6.906h.657l-1.938 6.906h-.656zm8.076-2.453.89.219q-.28 1.093-1.015 1.672-.719.562-1.75.562-1.094 0-1.766-.437-.672-.438-1.03-1.266-.345-.844-.345-1.797 0-1.047.391-1.812.406-.782 1.14-1.188.735-.406 1.61-.406 1.016 0 1.687.515.688.516.954 1.438l-.86.203q-.234-.734-.687-1.062-.438-.329-1.11-.329-.765 0-1.28.375-.517.36-.735.985-.203.625-.203 1.281 0 .844.25 1.484.25.641.765.954.531.312 1.14.312.735 0 1.25-.422.516-.437.704-1.281zm3.596 1.266v-1.829h-1.828v-.765h1.828v-1.828h.765v1.828h1.813v.765h-1.813v1.829h-.765zm5.447 0v-1.829H49.68v-.765h1.828v-1.828h.766v1.828h1.812v.765h-1.812v1.829h-.766z"/><path fill="none" d="M78.932 300.226V165.643h30.708v134.583z"/><path fill="#85200c" d="M96.892 259.088h-4.203v.72h-.641v-.72h-.516q-.484 0-.718-.078-.313-.125-.516-.422t-.203-.843q0-.344.094-.766l.703.125q-.047.266-.047.484 0 .375.172.532.156.156.594.156h.437v-.938h.64v.938h4.204v.812zm0-2.373H90.22v-.828h6.672v.828zm0-5.26h-.703q.812.563.812 1.532 0 .422-.156.797-.172.375-.422.562-.25.172-.61.25-.234.047-.765.047h-3v-.828h2.688q.64 0 .875-.047.312-.078.5-.328.187-.25.187-.61 0-.375-.187-.703-.188-.328-.516-.453-.328-.14-.953-.14h-2.594v-.813h4.844v.734zm-.735-3.812.72-.11q.077.344.077.61 0 .453-.14.703-.141.234-.36.344-.234.093-.984.093h-2.781v.61h-.641v-.61h-1.187l-.5-.812h1.687v-.828h.64v.828h2.829q.36 0 .469-.047.093-.047.156-.14.047-.094.047-.282 0-.14-.032-.36zm0-2.592.72-.11q.077.344.077.61 0 .453-.14.703-.141.234-.36.344-.234.094-.984.094h-2.781v.609h-.641v-.61h-1.187l-.5-.812h1.687v-.828h.64v.828h2.829q.36 0 .469-.047.093-.047.156-.14.047-.094.047-.282 0-.14-.032-.359zm-.828-4.107.11-.844q.75.187 1.156.734.406.547.406 1.39 0 1.063-.656 1.688-.656.61-1.828.61-1.219 0-1.89-.625-.688-.625-.688-1.625 0-.985.672-1.594.656-.61 1.859-.61h.219v3.61q.797-.047 1.218-.453.422-.406.422-1.016 0-.453-.234-.765-.234-.313-.766-.5zm-1.328 2.687v-2.703q-.61.063-.906.313-.469.39-.469 1.015 0 .563.375.953.375.375 1 .422zm2.89-4.563h-4.843v-.734h.734q-.515-.281-.671-.516-.172-.25-.172-.53 0-.423.265-.845l.766.282q-.172.296-.172.609 0 .266.156.484.157.203.453.297.438.14.954.14h2.53v.813zm.11-2.497-6.906-1.937v-.656L97 235.915v.656zm-1.672-6.513.11-.844q.75.188 1.156.734.406.547.406 1.391 0 1.063-.656 1.688-.656.609-1.828.609-1.219 0-1.89-.625-.688-.625-.688-1.625 0-.984.672-1.594.656-.61 1.859-.61h.219v3.61q.797-.047 1.218-.453.422-.406.422-1.016 0-.453-.234-.765-.234-.313-.766-.5zm-1.328 2.687v-2.703q-.61.063-.906.313-.469.39-.469 1.015 0 .563.375.953.375.375 1 .422zm2.89-4.563h-4.843v-.75h.688q-.797-.53-.797-1.53 0-.438.172-.798.156-.375.406-.547.25-.187.61-.265.218-.047.796-.047h2.969v.828h-2.938q-.5 0-.75.094t-.39.344q-.157.234-.157.562 0 .516.329.906.328.375 1.265.375h2.64v.828zm.407-5.047.11-.797q.374-.047.546-.28.219-.298.219-.829 0-.563-.234-.875-.22-.313-.625-.422-.25-.062-1.063-.062.64.546.64 1.343 0 1-.718 1.547-.719.547-1.734.547-.688 0-1.266-.25-.594-.25-.906-.719-.328-.484-.328-1.125 0-.859.703-1.422h-.594v-.75h4.188q1.125 0 1.593.235.485.219.75.719.282.5.282 1.234 0 .86-.391 1.39-.39.532-1.172.516zm-2.906-.672q.953 0 1.39-.375.438-.39.438-.953 0-.562-.438-.937-.437-.39-1.375-.39-.875 0-1.328.39-.453.39-.453.953 0 .547.453.937.438.375 1.313.375zm-3.235-4.672h-.937v-.812h.937v.812zm5.735 0h-4.844v-.812h4.844v.812zm0-2.057h-4.844v-.75h.688q-.797-.53-.797-1.53 0-.438.172-.798.156-.375.406-.547.25-.187.61-.265.218-.047.796-.047h2.969v.828h-2.938q-.5 0-.75.094-.25.093-.39.343-.157.235-.157.563 0 .516.329.906.328.375 1.265.375h2.64v.828zm-1.563-8.5.11-.844q.75.188 1.156.735.406.546.406 1.39 0 1.063-.656 1.688-.656.61-1.828.61-1.219 0-1.89-.626-.688-.625-.688-1.625 0-.984.672-1.594.656-.61 1.859-.61h.219v3.61q.797-.047 1.218-.453.422-.406.422-1.015 0-.454-.234-.766-.234-.313-.766-.5zm-1.328 2.687v-2.703q-.61.063-.906.313-.469.39-.469 1.015 0 .563.375.954.375.375 1 .421z"/><path fill="none" d="M151.467 215.648h93.827v37.166h-93.827z"/><path fill="#000" d="M176.719 238.728v-10.484h7.593v1.234h-6.203v3.203h5.797v1.235h-5.797v3.578h6.438v1.234h-7.828zm9.588 0v-7.593h1.156v1.078q.844-1.25 2.422-1.25.687 0 1.266.25.578.234.859.64.281.407.406.953.063.36.063 1.25v4.672h-1.282v-4.625q0-.781-.156-1.172-.156-.39-.547-.625-.375-.234-.89-.234-.813 0-1.422.531-.594.516-.594 1.969v4.156h-1.281zm7.917.625 1.25.188q.078.578.437.844.469.359 1.313.359.89 0 1.375-.36.484-.359.656-1 .11-.39.094-1.656-.844 1-2.11 1-1.562 0-2.422-1.125-.86-1.14-.86-2.718 0-1.094.392-2 .406-.922 1.14-1.422.75-.5 1.766-.5 1.344 0 2.219 1.078v-.906h1.187v6.562q0 1.781-.36 2.516-.359.734-1.156 1.156-.78.437-1.921.437-1.36 0-2.204-.609-.828-.61-.796-1.844zm1.062-4.562q0 1.5.594 2.187.594.688 1.484.688t1.485-.688q.609-.687.609-2.14 0-1.391-.625-2.094-.61-.719-1.484-.719-.86 0-1.47.703-.593.688-.593 2.063zm7.323-5.078v-1.47h1.297v1.47h-1.297zm0 9.015v-7.593h1.297v7.593h-1.297zm3.256 0v-7.593h1.156v1.078q.844-1.25 2.422-1.25.688 0 1.266.25.578.234.86.64.28.407.406.953.062.36.062 1.25v4.672h-1.281v-4.625q0-.781-.156-1.172-.157-.39-.547-.625-.375-.234-.89-.234-.813 0-1.423.531-.594.516-.594 1.969v4.156h-1.28zm13.354-2.453 1.329.172q-.313 1.172-1.172 1.813-.844.64-2.172.64-1.672 0-2.656-1.015-.97-1.032-.97-2.891 0-1.922.985-2.969 1-1.062 2.578-1.062 1.516 0 2.485 1.03.968 1.032.968 2.923 0 .11-.015.344h-5.656q.062 1.25.703 1.921.64.657 1.593.657.704 0 1.204-.36.5-.375.796-1.203zm-4.234-2.078h4.25q-.094-.953-.484-1.437-.625-.75-1.61-.75-.875 0-1.484.593-.61.594-.672 1.594z"/><path fill="none" d="M101.64 159.205h193.48v33.921H101.64z"/><path fill="#000" d="M186.533 179.725v-.782q-.594.922-1.734.922-.75 0-1.375-.406-.625-.422-.97-1.156-.343-.735-.343-1.688 0-.922.313-1.687.312-.766.937-1.156.625-.407 1.39-.407.563 0 1 .235.438.234.72.61v-3.079h1.046v8.594h-.984zm-3.328-3.11q0 1.203.5 1.797.5.578 1.187.578.688 0 1.172-.562.485-.563.485-1.719 0-1.281-.5-1.875-.485-.594-1.204-.594-.703 0-1.171.578-.47.563-.47 1.797zm10.033 2.344q-.594.5-1.14.703-.532.203-1.157.203-1.031 0-1.578-.5-.547-.5-.547-1.28 0-.454.203-.829.203-.39.547-.61.344-.234.766-.343.297-.094.937-.172 1.266-.14 1.875-.36v-.265q0-.656-.297-.922-.406-.344-1.203-.344-.734 0-1.093.266-.36.25-.532.906l-1.031-.14q.14-.657.469-1.063.328-.406.937-.625.61-.219 1.407-.219.796 0 1.296.188.5.187.735.469.234.28.328.718.047.266.047.97v1.405q0 1.47.062 1.86.078.39.282.75h-1.11q-.156-.328-.203-.766zm-.094-2.36q-.578.235-1.718.407-.657.094-.922.219-.266.11-.422.328-.14.219-.14.5 0 .422.312.703.328.281.937.281.61 0 1.078-.265.485-.266.703-.735.172-.36.172-1.047v-.39zm2.69 3.126v-6.219h.953v.937q.36-.656.656-.859.313-.219.688-.219.53 0 1.078.328l-.36.985q-.39-.235-.765-.235-.36 0-.64.22-.267.202-.376.577-.187.563-.187 1.22v3.265h-1.047zm6.308-.938.157.922q-.454.094-.797.094-.578 0-.89-.172-.313-.188-.454-.484-.125-.297-.125-1.25v-3.579h-.766v-.812h.766v-1.547l1.047-.625v2.172h1.062v.812h-1.062v3.641q0 .453.047.578.062.125.187.203.125.078.36.078.187 0 .468-.03zm1.319-4.078v-1.203h1.203v1.203h-1.203zm0 5.016v-1.203h1.203v1.203h-1.203zm7.13 0v-.922q-.734 1.062-1.984 1.062-.547 0-1.031-.203-.469-.219-.703-.531-.235-.328-.328-.797-.063-.297-.063-.984v-3.844h1.063v3.453q0 .813.062 1.11.094.406.406.656.329.234.813.234.469 0 .875-.234.422-.25.594-.672.187-.422.187-1.219v-3.328h1.047v6.219h-.937zm2.596-7.375v-1.219h1.063v1.219h-1.063zm0 7.375v-6.219h1.063v6.219h-1.063z"/><path fill="none" d="M101.64 275.336h193.48v33.921H101.64z"/><path fill="#000" d="M123.29 295.856v-8.594h6.204v1.016h-5.063v2.625h4.75v1.015h-4.75v2.922h5.266v1.016h-6.406zm7.848 0v-6.219h.938v.875q.297-.469.781-.734.485-.281 1.11-.281.687 0 1.125.28.453.282.625.798.75-1.078 1.921-1.078.938 0 1.422.515.5.5.5 1.578v4.266h-1.047v-3.922q0-.625-.109-.906-.094-.281-.36-.453-.265-.172-.64-.172-.656 0-1.094.437-.422.438-.422 1.407v3.609h-1.062v-4.047q0-.703-.266-1.047-.25-.36-.828-.36-.453 0-.828.235-.375.235-.547.688-.172.453-.172 1.297v3.234h-1.047zm10.965 0h-.984v-8.594h1.062v3.063q.672-.828 1.703-.828.579 0 1.079.234.515.219.843.64.344.422.532 1.016.187.594.187 1.266 0 1.594-.797 2.469-.797.875-1.89.875-1.11 0-1.735-.922v.781zm-.015-3.156q0 1.11.312 1.61.5.812 1.344.812.687 0 1.187-.594.516-.594.516-1.797 0-1.219-.484-1.797-.485-.578-1.172-.578-.688 0-1.203.61-.5.593-.5 1.734zm9.97 1.156 1.094.125q-.25.953-.953 1.484-.703.532-1.781.532-1.36 0-2.172-.844-.797-.844-.797-2.36 0-1.562.812-2.421.813-.875 2.094-.875 1.25 0 2.031.843.797.844.797 2.391v.281h-4.64q.062 1.031.578 1.578.515.532 1.297.532.578 0 .984-.297.422-.313.656-.969zm-3.453-1.703h3.469q-.063-.797-.39-1.188-.516-.609-1.313-.609-.735 0-1.235.484-.484.485-.53 1.313zm9.908 3.703v-.781q-.593.922-1.734.922-.75 0-1.375-.407-.625-.422-.969-1.156-.343-.734-.343-1.687 0-.922.312-1.688.313-.766.938-1.156.625-.406 1.39-.406.563 0 1 .234.438.234.719.61v-3.079h1.047v8.594h-.985zm-3.328-3.11q0 1.204.5 1.797.5.579 1.188.579.687 0 1.172-.563.484-.562.484-1.719 0-1.28-.5-1.875-.484-.593-1.203-.593-.703 0-1.172.578-.469.562-.469 1.797zm10.002 3.11v-.781q-.594.922-1.734.922-.75 0-1.375-.407-.625-.422-.969-1.156t-.344-1.687q0-.922.313-1.688.312-.766.937-1.156.625-.406 1.391-.406.562 0 1 .234.437.234.719.61v-3.079h1.047v8.594h-.985zm-3.328-3.11q0 1.204.5 1.797.5.579 1.188.579.687 0 1.171-.563.485-.562.485-1.719 0-1.28-.5-1.875-.485-.593-1.203-.593-.703 0-1.172.578-.469.562-.469 1.797zm10.22 1.11 1.095.125q-.25.953-.954 1.484-.703.532-1.78.532-1.36 0-2.173-.844-.797-.844-.797-2.36 0-1.562.813-2.421.812-.875 2.094-.875 1.25 0 2.03.843.798.844.798 2.391v.281h-4.64q.062 1.031.577 1.578.516.532 1.297.532.578 0 .985-.297.421-.313.656-.969zm-3.452-1.703h3.468q-.062-.797-.39-1.188-.516-.609-1.313-.609-.734 0-1.234.484-.484.485-.531 1.313zm5.861 3.703v-6.219h.953v.938q.36-.657.656-.86.313-.218.688-.218.531 0 1.078.328l-.36.984q-.39-.234-.765-.234-.36 0-.64.218-.266.204-.376.579-.187.562-.187 1.218v3.266h-1.047zm5.871 0 3.297-8.594h1.219l3.515 8.594h-1.28l-1.017-2.61h-3.578l-.953 2.61h-1.203zm2.484-3.531h2.907l-.89-2.375q-.423-1.078-.61-1.782-.172.829-.469 1.641l-.938 2.516zm6.458 3.531v-8.594h3.25q.843 0 1.296.078.641.11 1.063.407.437.296.687.828.266.531.266 1.172 0 1.093-.703 1.859-.688.75-2.516.75h-2.203v3.5h-1.14zm1.14-4.5h2.219q1.11 0 1.562-.406.47-.422.47-1.172 0-.531-.282-.906-.266-.391-.703-.516-.297-.078-1.063-.078h-2.203v3.078zm7.067 4.5v-8.594h1.125v8.594h-1.125zm8.355 2.531q-.875-1.11-1.484-2.578-.594-1.484-.594-3.062 0-1.391.437-2.672.532-1.485 1.641-2.953h.75q-.703 1.218-.937 1.734-.36.812-.563 1.687-.25 1.094-.25 2.204 0 2.828 1.75 5.64h-.75zm6.23-4.531 1.094.125q-.25.953-.953 1.484-.703.532-1.781.532-1.36 0-2.172-.844-.797-.844-.797-2.36 0-1.562.813-2.421.812-.875 2.093-.875 1.25 0 2.032.843.796.844.796 2.391v.281h-4.64q.062 1.031.578 1.578.516.532 1.297.532.578 0 .984-.297.422-.313.656-.969zm-3.453-1.703h3.47q-.063-.797-.392-1.188-.515-.609-1.312-.609-.734 0-1.234.484-.485.485-.532 1.313zm5.877 3.703v-6.219h.938v.875q.297-.469.781-.734.484-.281 1.11-.281.687 0 1.124.28.454.282.625.798.75-1.078 1.922-1.078.938 0 1.422.515.5.5.5 1.578v4.266h-1.047v-3.922q0-.625-.11-.906-.093-.281-.358-.453-.266-.172-.641-.172-.656 0-1.094.437-.422.438-.422 1.407v3.609h-1.062v-4.047q0-.703-.266-1.047-.25-.36-.828-.36-.453 0-.828.235-.375.235-.547.688-.172.453-.172 1.297v3.234h-1.047zm10.965 0h-.984v-8.594h1.062v3.063q.672-.828 1.703-.828.579 0 1.079.234.515.219.843.64.344.422.532 1.016.187.594.187 1.266 0 1.594-.797 2.469-.797.875-1.89.875-1.11 0-1.735-.922v.781zm-.015-3.156q0 1.11.312 1.61.5.812 1.344.812.687 0 1.187-.594.516-.594.516-1.797 0-1.219-.484-1.797-.485-.578-1.172-.578-.688 0-1.203.61-.5.593-.5 1.734zm9.97 1.156 1.094.125q-.25.953-.953 1.484-.703.532-1.781.532-1.36 0-2.172-.844-.797-.844-.797-2.36 0-1.562.812-2.421.813-.875 2.094-.875 1.25 0 2.031.843.797.844.797 2.391v.281h-4.64q.062 1.031.578 1.578.515.532 1.297.532.578 0 .984-.297.422-.313.656-.969zm-3.453-1.703h3.469q-.063-.797-.39-1.188-.516-.609-1.313-.609-.735 0-1.235.484-.484.485-.53 1.313zm9.908 3.703v-.781q-.593.922-1.734.922-.75 0-1.375-.407-.625-.422-.969-1.156t-.344-1.687q0-.922.313-1.688.312-.766.937-1.156.625-.406 1.391-.406.563 0 1 .234.438.234.719.61v-3.079h1.047v8.594h-.985zm-3.328-3.11q0 1.204.5 1.797.5.579 1.188.579.687 0 1.172-.563.484-.562.484-1.719 0-1.28-.5-1.875-.484-.593-1.203-.593-.703 0-1.172.578-.469.562-.469 1.797zm10.002 3.11v-.781q-.594.922-1.734.922-.75 0-1.375-.407-.625-.422-.969-1.156t-.344-1.687q0-.922.313-1.688.312-.766.937-1.156.625-.406 1.39-.406.563 0 1 .234.438.234.72.61v-3.079h1.047v8.594h-.985zm-3.328-3.11q0 1.204.5 1.797.5.579 1.188.579.687 0 1.171-.563.485-.562.485-1.719 0-1.28-.5-1.875-.485-.593-1.203-.593-.703 0-1.172.578-.469.562-.469 1.797zm10.22 1.11 1.094.125q-.25.953-.953 1.484-.703.532-1.78.532-1.36 0-2.173-.844-.797-.844-.797-2.36 0-1.562.813-2.421.812-.875 2.094-.875 1.25 0 2.03.843.798.844.798 2.391v.281h-4.64q.062 1.031.577 1.578.516.532 1.297.532.578 0 .984-.297.422-.313.657-.969zm-3.452-1.703h3.468q-.062-.797-.39-1.188-.516-.609-1.313-.609-.734 0-1.234.484-.485.485-.531 1.313zm5.86 3.703v-6.219h.954v.938q.36-.657.656-.86.313-.218.688-.218.531 0 1.078.328l-.36.984q-.39-.234-.765-.234-.36 0-.64.218-.266.204-.376.579-.187.562-.187 1.218v3.266h-1.047zm3.647 0v-1.203h1.204v1.203h-1.204zm3.038 0v-8.594h1.046v3.078q.735-.843 1.86-.843.703 0 1.203.28.516.266.734.75.219.47.219 1.391v3.938h-1.047v-3.938q0-.796-.344-1.156-.343-.36-.968-.36-.47 0-.891.25-.406.235-.594.657-.172.406-.172 1.14v3.407h-1.046zm7.36 2.531h-.75q1.75-2.812 1.75-5.64 0-1.094-.25-2.188-.202-.875-.562-1.687-.234-.516-.937-1.75h.75q1.094 1.468 1.625 2.953.453 1.281.453 2.672 0 1.578-.61 3.062-.609 1.469-1.468 2.578z"/><path fill="none" d="M78.932 418.756V301.59h30.708v117.165z"/><path fill="#85200c" d="M96.892 386.327h-4.203v.719h-.641v-.719h-.516q-.484 0-.718-.078-.313-.125-.516-.422t-.203-.844q0-.343.094-.765l.703.125q-.047.265-.047.484 0 .375.172.531.156.157.594.157h.437v-.938h.64v.938h4.204v.812zm0-2.373H90.22v-.828h6.672v.828zm0-5.26h-.703q.812.563.812 1.532 0 .421-.156.796-.172.375-.422.563-.25.172-.61.25-.234.047-.765.047h-3v-.828h2.688q.64 0 .875-.047.312-.078.5-.328.187-.25.187-.61 0-.375-.187-.703-.188-.328-.516-.453-.328-.14-.953-.14h-2.594v-.813h4.844v.734zm-.735-3.813.72-.109q.077.344.077.61 0 .453-.14.703-.141.234-.36.343-.234.094-.984.094h-2.781v.61h-.641v-.61h-1.187l-.5-.812h1.687v-.829h.64v.829h2.829q.36 0 .469-.047.093-.047.156-.14.047-.095.047-.282 0-.14-.032-.36zm0-2.591.72-.11q.077.344.077.61 0 .453-.14.703-.141.234-.36.344-.234.093-.984.093h-2.781v.61h-.641v-.61h-1.187l-.5-.812h1.687v-.828h.64v.828h2.829q.36 0 .469-.047.093-.047.156-.14.047-.094.047-.282 0-.14-.032-.36zm-.828-4.107.11-.844q.75.187 1.156.734.406.547.406 1.39 0 1.063-.656 1.688-.656.61-1.828.61-1.219 0-1.89-.625-.688-.625-.688-1.625 0-.985.672-1.594.656-.61 1.859-.61h.219v3.61q.797-.047 1.218-.453.422-.406.422-1.016 0-.453-.234-.765-.234-.313-.766-.5zm-1.328 2.687v-2.703q-.61.062-.906.312-.469.391-.469 1.016 0 .563.375.953.375.375 1 .422zm2.89-4.563h-4.843v-.734h.734q-.515-.281-.671-.516-.172-.25-.172-.531 0-.422.265-.844l.766.281q-.172.297-.172.61 0 .265.156.484.157.203.453.297.438.14.954.14h2.53v.813zm.11-2.497-6.906-1.937v-.657L97 363.154v.656zm-1.672-6.513.11-.844q.75.187 1.156.734.406.547.406 1.39 0 1.063-.656 1.688-.656.61-1.828.61-1.219 0-1.89-.625-.688-.625-.688-1.625 0-.985.672-1.594.656-.61 1.859-.61h.219v3.61q.797-.047 1.218-.453.422-.406.422-1.016 0-.453-.234-.765-.234-.313-.766-.5zm-1.328 2.687v-2.703q-.61.063-.906.313-.469.39-.469 1.015 0 .563.375.953.375.375 1 .422zm2.89-4.563h-4.843v-.75h.688q-.797-.531-.797-1.531 0-.437.172-.797.156-.375.406-.547.25-.187.61-.265.218-.047.796-.047h2.969v.828h-2.938q-.5 0-.75.094-.25.093-.39.343-.157.235-.157.563 0 .516.329.906.328.375 1.265.375h2.64v.828zm.407-5.047.11-.797q.374-.047.546-.281.219-.297.219-.828 0-.563-.234-.875-.22-.313-.625-.422-.25-.063-1.063-.063.64.547.64 1.344 0 1-.718 1.547-.719.547-1.734.547-.688 0-1.266-.25-.594-.25-.906-.719-.328-.484-.328-1.125 0-.86.703-1.422h-.594v-.75h4.188q1.125 0 1.593.235.485.218.75.718.282.5.282 1.235 0 .86-.391 1.39-.39.532-1.172.516zm-2.906-.672q.953 0 1.39-.375.438-.39.438-.953 0-.562-.438-.937-.437-.391-1.375-.391-.875 0-1.328.39-.453.391-.453.954 0 .547.453.937.438.375 1.313.375zm-3.235-4.672h-.937v-.813h.937v.813zm5.735 0h-4.844v-.813h4.844v.813zm0-2.057h-4.844v-.75h.688q-.797-.531-.797-1.531 0-.438.172-.797.156-.375.406-.547.25-.187.61-.265.218-.047.796-.047h2.969v.828h-2.938q-.5 0-.75.094-.25.093-.39.343-.157.235-.157.563 0 .515.329.906.328.375 1.265.375h2.64v.828zm-1.563-8.5.11-.844q.75.188 1.156.734.406.547.406 1.391 0 1.063-.656 1.688-.656.609-1.828.609-1.219 0-1.89-.625-.688-.625-.688-1.625 0-.984.672-1.594.656-.61 1.859-.61h.219v3.61q.797-.047 1.218-.453.422-.406.422-1.016 0-.453-.234-.765-.234-.313-.766-.5zm-1.328 2.687v-2.703q-.61.063-.906.313-.469.39-.469 1.015 0 .563.375.953.375.375 1 .422z"/><path fill="none" d="M101.64 393.36h193.48v33.92H101.64z"/><path fill="#000" d="M143.952 413.88v-8.594h3.25q.844 0 1.297.078.64.11 1.062.406.438.297.688.828.265.532.265 1.172 0 1.094-.703 1.86-.687.75-2.515.75h-2.204v3.5h-1.14zm1.14-4.5h2.22q1.109 0 1.562-.407.468-.422.468-1.172 0-.53-.28-.906-.266-.39-.704-.515-.297-.079-1.062-.079h-2.204v3.079zm6.708 4.5v-8.594h1.062v8.594H151.8zm6.76-.766q-.594.5-1.141.703-.532.203-1.157.203-1.03 0-1.578-.5-.547-.5-.547-1.281 0-.453.204-.828.203-.39.546-.61.344-.234.766-.343.297-.094.938-.172 1.265-.14 1.875-.36v-.265q0-.656-.297-.922-.407-.344-1.203-.344-.735 0-1.094.266-.36.25-.531.906l-1.032-.14q.14-.657.469-1.063.328-.406.938-.625.609-.219 1.406-.219.797 0 1.297.188.5.187.734.468.234.282.328.72.047.265.047.968v1.406q0 1.469.063 1.86.078.39.28.75h-1.109q-.156-.329-.203-.766zm-.094-2.36q-.579.235-1.72.407-.655.094-.921.219-.266.109-.422.328-.14.218-.14.5 0 .422.312.703.328.281.937.281.61 0 1.079-.266.484-.265.703-.734.172-.36.172-1.047v-.39zm5.001 2.188.157.922q-.453.094-.797.094-.578 0-.89-.172-.313-.188-.454-.485-.125-.296-.125-1.25v-3.578h-.766v-.812h.766v-1.547l1.047-.625v2.172h1.062v.812h-1.062v3.641q0 .453.047.578.062.125.187.203.125.078.36.078.187 0 .468-.03zm1.288.938v-5.407h-.938v-.812h.938v-.672q0-.625.109-.922.156-.422.531-.672.39-.25 1.078-.25.453 0 .985.11l-.157.906q-.328-.047-.625-.047-.484 0-.687.203-.188.203-.188.766v.578h1.22v.812h-1.22v5.407h-1.046zm2.693-3.11q0-1.734.953-2.562.797-.688 1.953-.688 1.281 0 2.094.844.828.828.828 2.312 0 1.204-.36 1.891-.359.688-1.062 1.078-.687.375-1.5.375-1.297 0-2.11-.828-.796-.844-.796-2.422zm1.078 0q0 1.188.516 1.781.531.594 1.312.594.797 0 1.313-.594.515-.593.515-1.812 0-1.156-.53-1.75-.517-.594-1.298-.594t-1.312.594q-.516.578-.516 1.781zm5.97 3.11v-6.22h.954v.938q.36-.656.656-.859.313-.219.688-.219.53 0 1.078.328l-.36.985q-.39-.235-.765-.235-.36 0-.64.22-.266.202-.376.577-.187.563-.187 1.219v3.266h-1.047zm4.013 0v-6.22h.937v.876q.297-.469.781-.735.485-.28 1.11-.28.687 0 1.125.28.453.282.625.797.75-1.078 1.922-1.078.937 0 1.421.516.5.5.5 1.578v4.266h-1.046v-3.922q0-.625-.11-.907-.094-.28-.36-.453-.265-.172-.64-.172-.656 0-1.094.438-.421.437-.421 1.406v3.61h-1.063v-4.047q0-.703-.266-1.047-.25-.36-.828-.36-.453 0-.828.235-.375.234-.547.687-.172.453-.172 1.297v3.235h-1.046zm9.574-2.579v-1.062h3.25v1.062h-3.25zm3.996.72 1.031-.157q.094.625.484.953.407.328 1.141.328.719 0 1.063-.281.359-.297.359-.703 0-.36-.313-.563-.218-.14-1.078-.359-1.156-.297-1.61-.5-.437-.219-.67-.594-.235-.375-.235-.844 0-.406.187-.765.188-.36.516-.594.25-.172.672-.297.422-.125.922-.125.718 0 1.265.219.563.203.828.562.266.36.36.954l-1.032.14q-.062-.469-.406-.734-.328-.281-.953-.281-.719 0-1.031.25-.313.234-.313.562 0 .203.125.36.14.171.407.28.156.063.937.266 1.125.313 1.563.5.437.188.687.547.25.36.25.906 0 .532-.312 1-.297.454-.875.72-.579.25-1.313.25-1.219 0-1.86-.5-.624-.516-.796-1.5zm6.422 4.25v-8.61h.953v.797q.344-.469.765-.703.438-.235 1.047-.235.797 0 1.407.406.609.407.906 1.157.312.75.312 1.64 0 .953-.343 1.72-.329.765-.985 1.171-.656.406-1.375.406-.531 0-.953-.219-.422-.234-.687-.562v3.031H198.5zm.953-5.47q0 1.204.484 1.782.485.562 1.172.562.703 0 1.203-.594.5-.593.5-1.843 0-1.188-.484-1.766-.485-.594-1.172-.594-.672 0-1.188.625-.515.625-.515 1.828zm9.97 1.079 1.094.125q-.25.953-.953 1.484t-1.781.531q-1.36 0-2.172-.844-.797-.843-.797-2.359 0-1.562.813-2.422.812-.875 2.093-.875 1.25 0 2.032.844.797.844.797 2.39v.282h-4.641q.062 1.031.578 1.578.516.531 1.297.531.578 0 .984-.297.422-.312.657-.968zm-3.453-1.704h3.47q-.063-.796-.391-1.187-.516-.61-1.313-.61-.734 0-1.234.485-.485.484-.532 1.312zm9.94 1.422 1.031.141q-.172 1.062-.875 1.672-.703.61-1.719.61-1.28 0-2.062-.829-.766-.844-.766-2.406 0-1 .328-1.75.344-.766 1.016-1.14.687-.376 1.5-.376 1 0 1.64.516.657.5.844 1.453l-1.03.156q-.142-.625-.517-.937-.375-.328-.906-.328-.797 0-1.297.578-.5.562-.5 1.797 0 1.265.485 1.828.484.562 1.25.562.625 0 1.031-.375.422-.375.547-1.172zm1.937-5.093v-1.22h1.063v1.22h-1.063zm0 7.375v-6.22h1.063v6.22h-1.063zm2.916 0v-5.407h-.937v-.812h.937v-.672q0-.625.11-.922.156-.422.531-.672.39-.25 1.078-.25.453 0 .984.11l-.156.906q-.328-.047-.625-.047-.484 0-.687.203-.188.203-.188.766v.578h1.219v.812h-1.219v5.407h-1.047zm3.084-7.375v-1.22h1.063v1.22h-1.063zm0 7.375v-6.22h1.063v6.22h-1.063zm6.729-2.282 1.031.141q-.172 1.062-.875 1.672-.703.61-1.719.61-1.28 0-2.062-.829-.766-.844-.766-2.406 0-1 .328-1.75.344-.766 1.016-1.14.687-.376 1.5-.376 1 0 1.64.516.657.5.844 1.453l-1.03.156q-.142-.625-.517-.937-.375-.328-.906-.328-.797 0-1.297.578-.5.562-.5 1.797 0 1.265.485 1.828.484.562 1.25.562.625 0 1.031-.375.422-.375.547-1.172zm3.797 2.282 3.297-8.594h1.218l3.516 8.594h-1.281l-1.016-2.61h-3.578l-.953 2.61h-1.203zm2.484-3.532h2.906l-.89-2.375q-.422-1.078-.61-1.78-.172.827-.468 1.64l-.938 2.515zm6.457 3.532v-8.594h3.25q.844 0 1.297.078.64.11 1.063.406.437.297.687.828.266.532.266 1.172 0 1.094-.703 1.86-.688.75-2.516.75h-2.203v3.5h-1.14zm1.14-4.5h2.22q1.109 0 1.562-.407.469-.422.469-1.172 0-.53-.281-.906-.266-.39-.704-.515-.296-.079-1.062-.079h-2.203v3.079zm7.067 4.5v-8.594h1.125v8.594h-1.125z"/><path fill="none" d="M151.467 343.776h93.827v37.165h-93.827z"/><path fill="#000" d="M165.727 366.856V356.37h7.593v1.235h-6.203v3.203h5.797v1.234h-5.797v3.578h6.438v1.235h-7.828zm9.588 0v-7.594h1.156v1.062q.344-.562.937-.89.61-.344 1.36-.344.844 0 1.375.344.547.343.765.984.907-1.328 2.36-1.328 1.125 0 1.734.625.61.625.61 1.922v5.219h-1.282v-4.782q0-.78-.125-1.109-.125-.344-.453-.547-.328-.219-.781-.219-.797 0-1.328.532-.531.53-.531 1.703v4.422h-1.282v-4.938q0-.86-.312-1.281-.313-.438-1.031-.438-.547 0-1.016.297-.453.281-.672.828-.203.547-.203 1.594v3.938h-1.281zm13.396 0h-1.203V356.37h1.297v3.735q.812-1.016 2.078-1.016.703 0 1.328.281.625.281 1.031.797.406.5.625 1.234.235.72.235 1.532 0 1.968-.97 3.031-.952 1.062-2.312 1.062-1.343 0-2.11-1.125v.954zm-.016-3.86q0 1.375.375 1.985.61.984 1.64.984.845 0 1.454-.734.625-.735.625-2.188 0-1.484-.594-2.187-.593-.72-1.422-.72-.843 0-1.468.735-.61.735-.61 2.125zm12.183 1.406 1.328.172q-.313 1.172-1.172 1.813-.844.64-2.172.64-1.672 0-2.656-1.015-.969-1.031-.969-2.89 0-1.923.984-2.97 1-1.062 2.579-1.062 1.515 0 2.484 1.031.969 1.031.969 2.922 0 .11-.016.344h-5.656q.062 1.25.703 1.922.64.656 1.594.656.703 0 1.203-.36.5-.374.797-1.203zm-4.235-2.078h4.25q-.093-.953-.484-1.437-.625-.75-1.61-.75-.874 0-1.484.594-.61.593-.672 1.593zm12.105 4.532v-.954q-.72 1.125-2.125 1.125-.907 0-1.672-.5-.75-.5-1.172-1.39-.422-.906-.422-2.078 0-1.14.375-2.063.39-.922 1.14-1.406.766-.5 1.704-.5.687 0 1.218.297.532.281.875.734v-3.75h1.282v10.485h-1.203zm-4.063-3.797q0 1.468.61 2.187.624.719 1.453.719.843 0 1.437-.688.594-.687.594-2.109 0-1.562-.61-2.281-.593-.735-1.484-.735-.844 0-1.422.704-.578.703-.578 2.203zm12.214 3.797v-.954q-.72 1.125-2.125 1.125-.907 0-1.672-.5-.75-.5-1.172-1.39-.422-.906-.422-2.078 0-1.14.375-2.063.39-.922 1.14-1.406.766-.5 1.704-.5.687 0 1.218.297.532.281.875.734v-3.75h1.282v10.485h-1.203zm-4.063-3.797q0 1.468.61 2.187.624.719 1.453.719.843 0 1.437-.688.594-.687.594-2.109 0-1.562-.61-2.281-.593-.735-1.484-.735-.844 0-1.422.704-.578.703-.578 2.203zm12.495 1.343 1.328.172q-.312 1.172-1.172 1.813-.844.64-2.172.64-1.672 0-2.656-1.015-.969-1.031-.969-2.89 0-1.923.985-2.97 1-1.062 2.578-1.062 1.515 0 2.484 1.031.969 1.031.969 2.922 0 .11-.016.344h-5.656q.063 1.25.703 1.922.64.656 1.594.656.703 0 1.203-.36.5-.374.797-1.203zm-4.234-2.078h4.25q-.094-.953-.485-1.437-.625-.75-1.61-.75-.874 0-1.484.594-.609.593-.671 1.593zm7.166 4.532v-7.594h1.157v1.14q.453-.796.828-1.046.375-.266.812-.266.656 0 1.328.406l-.437 1.203q-.469-.28-.953-.28-.422 0-.766.25-.328.25-.469.702-.218.688-.218 1.5v3.985h-1.282z"/><path fill="none" d="M78.932 491.283v-71.905h30.708v71.905z"/><path fill="#bf9000" d="M96.298 469.978q.39.453.547.875.156.422.156.906 0 .797-.39 1.219-.391.422-1 .422-.344 0-.641-.157-.297-.156-.469-.422-.187-.265-.281-.593-.063-.235-.11-.719-.124-1-.28-1.469h-.22q-.5 0-.703.235-.28.312-.28.921 0 .579.202.86.203.281.719.406l-.11.797q-.515-.11-.827-.36-.329-.25-.5-.718-.172-.469-.172-1.094 0-.625.156-1 .14-.39.36-.578.218-.188.562-.25.203-.047.75-.047h1.094q1.14 0 1.453-.047.297-.062.578-.219v.86q-.25.125-.594.172zm-1.828.062q.172.453.297 1.344.078.5.172.719.093.203.265.312.172.11.39.11.329 0 .548-.235.219-.25.219-.734 0-.469-.204-.828-.218-.375-.578-.563-.265-.125-.812-.125h-.297zm4.281-2.094h-6.703v-.75h.64q-.374-.266-.562-.594-.187-.343-.187-.812 0-.625.328-1.094.312-.469.906-.703.578-.25 1.266-.25.734 0 1.328.266.594.265.922.78.312.5.312 1.063 0 .407-.172.735t-.437.531h2.36v.828zm-4.25-.75q.938 0 1.39-.375.438-.375.438-.922t-.453-.922q-.469-.39-1.437-.39-.938 0-1.391.375-.453.375-.453.906t.484.937q.485.391 1.422.391zm4.25-4.438h-6.703v-.75h.64q-.374-.265-.562-.594-.187-.343-.187-.812 0-.625.328-1.094.312-.469.906-.703.578-.25 1.266-.25.734 0 1.328.266.594.265.922.781.312.5.312 1.062 0 .407-.172.735t-.437.531h2.36v.828zm-4.25-.75q.938 0 1.39-.375.438-.375.438-.922t-.453-.922q-.469-.39-1.437-.39-.938 0-1.391.375-.453.375-.453.906t.484.938q.485.39 1.422.39zm2.39-7.03h-4.843v-.734h.734q-.515-.28-.671-.515-.172-.25-.172-.532 0-.421.265-.843l.766.28q-.172.298-.172.61 0 .266.156.485.157.203.453.297.438.14.954.14h2.53v.813zm-1.562-6.418.11-.844q.75.188 1.156.734.406.547.406 1.391 0 1.063-.656 1.688-.656.609-1.828.609-1.219 0-1.89-.625-.688-.625-.688-1.625 0-.984.672-1.594.656-.61 1.859-.61h.219v3.61q.797-.047 1.218-.453.422-.406.422-1.016 0-.453-.234-.765-.234-.313-.766-.5zm-1.328 2.687v-2.703q-.61.063-.906.313-.469.39-.469 1.015 0 .563.375.953.375.375 1 .422zm4.75-4.563h-6.703v-.75h.64q-.374-.265-.562-.593-.187-.344-.187-.813 0-.625.328-1.094.312-.468.906-.703.578-.25 1.266-.25.734 0 1.328.266.594.266.922.781.312.5.312 1.063 0 .406-.172.734-.172.328-.437.531h2.36v.828zm-4.25-.75q.938 0 1.39-.375.438-.375.438-.921 0-.547-.453-.922-.469-.39-1.437-.39-.938 0-1.391.374-.453.375-.453.906 0 .532.484.938.485.39 1.422.39zm-.031-4.14q-1.344 0-1.984-.75-.547-.626-.547-1.516 0-1 .656-1.625.656-.64 1.812-.64.938 0 1.47.28.53.282.827.813.297.531.297 1.172 0 1.015-.64 1.64-.657.625-1.891.625zm0-.844q.937 0 1.406-.407.453-.406.453-1.015 0-.61-.468-1.016-.47-.406-1.422-.406-.891 0-1.344.406-.469.406-.469 1.016t.469 1.015q.453.407 1.375.407z"/><path fill="none" d="M155.152 436.38h86.457v37.166h-86.457z"/><path fill="#000" d="M175.502 459.46v-10.484h4.64q1.407 0 2.141.281.735.282 1.172 1 .438.704.438 1.579 0 1.109-.735 1.875-.718.765-2.234.984.563.25.844.516.61.562 1.156 1.39l1.813 2.86h-1.735l-1.39-2.188q-.61-.937-1-1.437-.391-.5-.704-.704-.312-.203-.64-.28-.235-.048-.766-.048h-1.61v4.657h-1.39zm1.39-5.859h2.985q.938 0 1.469-.187.547-.203.828-.64.281-.438.281-.938 0-.75-.547-1.22-.53-.484-1.703-.484h-3.312v3.47zm13.991 5.86v-1.11q-.89 1.281-2.422 1.281-.671 0-1.25-.25-.578-.265-.875-.656-.28-.39-.39-.953-.078-.375-.078-1.203v-4.703h1.28v4.203q0 1.016.079 1.36.125.515.516.812.406.281.984.281t1.078-.297q.516-.297.719-.812.219-.516.219-1.485v-4.062h1.28v7.594h-1.14zm3.167 0v-7.594h1.156v1.078q.844-1.25 2.422-1.25.688 0 1.266.25.578.234.86.64.28.407.405.954.063.36.063 1.25v4.672h-1.281v-4.625q0-.782-.157-1.172-.156-.39-.546-.625-.375-.235-.891-.235-.813 0-1.422.532-.594.515-.594 1.968v4.157h-1.281zm8.151 0v-7.594h1.156v1.078q.844-1.25 2.422-1.25.688 0 1.266.25.578.234.86.64.28.407.406.954.062.36.062 1.25v4.672h-1.281v-4.625q0-.782-.156-1.172-.157-.39-.547-.625-.375-.235-.891-.235-.812 0-1.422.532-.594.515-.594 1.968v4.157h-1.28zm13.354-2.454 1.328.172q-.312 1.172-1.171 1.813-.844.64-2.172.64-1.672 0-2.657-1.015-.968-1.031-.968-2.89 0-1.923.984-2.97 1-1.062 2.578-1.062 1.516 0 2.485 1.031.968 1.031.968 2.922 0 .11-.015.344h-5.657q.063 1.25.704 1.922.64.656 1.593.656.703 0 1.203-.36.5-.374.797-1.203zm-4.234-2.078h4.25q-.094-.953-.484-1.437-.625-.75-1.61-.75-.875 0-1.484.594-.61.593-.672 1.593zm7.167 4.532v-7.594h1.156v1.14q.453-.796.828-1.046.375-.266.813-.266.656 0 1.328.406l-.438 1.203q-.469-.28-.953-.28-.422 0-.766.25-.328.25-.468.702-.219.688-.219 1.5v3.985h-1.281z"/><path fill="none" d="M151.466 19.113h93.827v37.165h-93.827z"/><path fill="#000" d="M170.99 42.193V31.708h3.625q1.219 0 1.86.141.906.203 1.546.75.828.703 1.235 1.797.406 1.094.406 2.5 0 1.187-.281 2.11-.266.921-.704 1.53-.437.61-.968.954-.516.343-1.25.531-.719.172-1.672.172h-3.797zm1.39-1.235h2.25q1.032 0 1.626-.187.593-.203.937-.547.5-.5.766-1.328.281-.844.281-2.031 0-1.64-.547-2.516-.531-.89-1.312-1.187-.547-.22-1.797-.22h-2.203v8.016zm13.991.297q-.719.61-1.375.86t-1.422.25q-1.25 0-1.922-.61-.671-.609-.671-1.562 0-.563.25-1.016.25-.469.656-.75.422-.281.937-.422.375-.093 1.14-.187 1.563-.188 2.298-.453.015-.266.015-.328 0-.797-.375-1.11-.484-.437-1.453-.437-.922 0-1.36.328-.421.312-.624 1.11l-1.266-.173q.172-.797.563-1.297.39-.5 1.14-.765.75-.266 1.72-.266.984 0 1.593.235.61.218.89.562.282.344.407.875.062.328.062 1.188v1.718q0 1.797.078 2.282.079.468.329.906h-1.344q-.203-.406-.266-.938zm-.11-2.875q-.702.282-2.093.485-.797.11-1.125.265-.328.141-.516.422-.171.266-.171.594 0 .516.39.86.39.343 1.14.343.735 0 1.313-.312.594-.329.86-.891.203-.438.203-1.297v-.469zm3.292 3.813v-7.594h1.157v1.14q.453-.796.828-1.046.375-.266.812-.266.657 0 1.328.406l-.437 1.204q-.469-.282-.953-.282-.422 0-.766.25-.328.25-.469.703-.218.688-.218 1.5v3.985h-1.282zm7.71-1.156.187 1.14q-.547.11-.985.11-.687 0-1.078-.22-.39-.218-.547-.577-.156-.36-.156-1.516V35.6h-.953v-1h.953v-1.89l1.281-.766v2.656h1.297v1h-1.297v4.438q0 .546.063.718.078.157.219.25.156.078.453.078.203 0 .562-.046zm3.537 1.156 4.016-10.485h1.5l4.297 10.485h-1.579L207.8 39.02h-4.375l-1.156 3.172H200.8zm3.016-4.313h3.562l-1.094-2.906q-.5-1.312-.75-2.172-.203 1.016-.562 2l-1.156 3.078zm7.744 7.22V34.6h1.172v.983q.422-.578.937-.859.516-.297 1.266-.297.969 0 1.719.5.75.5 1.125 1.422.375.906.375 1.984 0 1.172-.422 2.11-.406.922-1.219 1.422-.797.5-1.672.5-.64 0-1.156-.266-.516-.281-.844-.687v3.687h-1.28zm1.156-6.657q0 1.453.594 2.156.61.703 1.453.703.86 0 1.469-.719.61-.734.61-2.25 0-1.453-.61-2.171-.594-.735-1.422-.735-.812 0-1.453.781-.64.766-.64 2.235zm6.995 6.656V34.6h1.172v.984q.422-.578.938-.859.515-.297 1.265-.297.969 0 1.719.5.75.5 1.125 1.422.375.906.375 1.984 0 1.172-.422 2.11-.406.922-1.219 1.422-.797.5-1.672.5-.64 0-1.156-.266-.515-.281-.844-.687v3.687h-1.28zm1.156-6.656q0 1.453.594 2.156.61.703 1.453.703.86 0 1.47-.719.608-.734.608-2.25 0-1.453-.609-2.171-.594-.735-1.422-.735-.812 0-1.453.781-.64.766-.64 2.235z"/><path fill="none" d="M78.93 78.64V6.83h30.71v71.81z"/><path fill="#bf9000" d="M96.297 57.382q.39.453.547.875.156.422.156.906 0 .797-.39 1.219-.391.422-1 .422-.345 0-.641-.156-.297-.157-.47-.422-.187-.266-.28-.594-.063-.234-.11-.719-.125-1-.281-1.469h-.219q-.5 0-.703.235-.281.312-.281.922 0 .578.203.859t.719.406l-.11.797q-.515-.11-.828-.36-.328-.25-.5-.718-.172-.469-.172-1.094 0-.625.157-1 .14-.39.359-.578.219-.187.562-.25.204-.047.75-.047h1.094q1.14 0 1.453-.047.297-.062.578-.218v.859q-.25.125-.593.172zm-1.828.062q.171.454.296 1.344.079.5.172.719.094.203.266.312.172.11.39.11.329 0 .547-.235.22-.25.22-.734 0-.469-.204-.828-.219-.375-.578-.563-.266-.125-.813-.125h-.296zm4.28-2.094h-6.702v-.75h.64q-.375-.265-.562-.593-.188-.344-.188-.813 0-.625.328-1.094.313-.468.907-.703.578-.25 1.265-.25.735 0 1.328.266.594.265.922.781.313.5.313 1.063 0 .406-.172.734-.172.328-.438.531h2.36v.828zm-4.25-.75q.938 0 1.391-.375.438-.375.438-.922 0-.546-.453-.921-.469-.391-1.438-.391-.937 0-1.39.375-.453.375-.453.906t.484.938q.484.39 1.422.39zm4.25-4.438h-6.702v-.75h.64q-.375-.265-.562-.593-.188-.344-.188-.813 0-.625.328-1.094.313-.468.907-.703.578-.25 1.265-.25.735 0 1.328.266.594.266.922.781.313.5.313 1.063 0 .406-.172.734-.172.328-.438.531h2.36v.828zm-4.25-.75q.938 0 1.391-.375.438-.375.438-.921 0-.547-.453-.922-.469-.391-1.438-.391-.937 0-1.39.375-.453.375-.453.906 0 .532.484.938.484.39 1.422.39zm2.391-7.03h-4.843v-.734h.734q-.516-.28-.672-.515-.172-.25-.172-.531 0-.422.266-.844l.766.281q-.172.297-.172.61 0 .265.156.484.156.203.453.297.438.14.953.14h2.531v.813zm-1.562-6.418.11-.844q.75.188 1.156.735.406.547.406 1.39 0 1.063-.656 1.688-.657.61-1.829.61-1.218 0-1.89-.626-.688-.625-.688-1.625 0-.984.672-1.594.656-.609 1.86-.609h.218v3.61q.797-.047 1.22-.454.42-.406.42-1.015 0-.453-.233-.766-.235-.312-.766-.5zM94 38.652v-2.704q-.61.063-.906.313-.47.39-.47 1.016 0 .562.376.953.375.375 1 .422zm4.75-4.563h-6.703v-.75h.64q-.375-.266-.562-.594-.188-.344-.188-.813 0-.625.328-1.093.313-.47.907-.703.578-.25 1.265-.25.735 0 1.328.265.594.266.922.781.313.5.313 1.063 0 .406-.172.734-.172.328-.438.532h2.36v.828zm-4.25-.75q.937 0 1.39-.375.438-.375.438-.922t-.453-.922q-.469-.39-1.438-.39-.937 0-1.39.374-.453.375-.453.907 0 .53.484.937.484.39 1.422.39zm-.031-4.141q-1.344 0-1.985-.75-.547-.625-.547-1.516 0-1 .657-1.625.656-.64 1.812-.64.938 0 1.469.28.531.282.828.813.297.531.297 1.172 0 1.016-.64 1.64-.657.626-1.891.626zm0-.844q.937 0 1.406-.406.453-.407.453-1.016 0-.61-.469-1.016t-1.422-.406q-.89 0-1.343.406-.47.407-.47 1.016 0 .61.47 1.016.453.406 1.375.406z"/><path fill="none" d="M78.93 166.339V76.102h30.71v90.237z"/><path fill="#0b5394" d="M96.89 145.033h-4.203v.719h-.64v-.719h-.516q-.484 0-.719-.078-.312-.125-.515-.422t-.203-.843q0-.344.093-.766l.703.125q-.046.266-.046.484 0 .375.171.532.157.156.594.156h.438v-.938h.64v.938h4.203v.812zm0-2.373H90.22v-.828h6.671v.828zm0-5.26h-.703q.813.563.813 1.532 0 .422-.156.797-.172.375-.422.562-.25.172-.61.25-.234.047-.765.047h-3v-.828h2.687q.64 0 .875-.047.313-.078.5-.328.188-.25.188-.61 0-.375-.188-.703-.187-.328-.515-.453-.329-.14-.954-.14h-2.593v-.813h4.843v.734zm-.734-3.812.719-.11q.078.344.078.61 0 .453-.14.703-.141.234-.36.343-.234.094-.984.094h-2.782v.61h-.64v-.61h-1.188l-.5-.812h1.688v-.828h.64v.828h2.828q.36 0 .47-.047.093-.047.155-.14.047-.095.047-.282 0-.14-.03-.36zm0-2.592.719-.11q.078.344.078.61 0 .453-.14.703-.141.234-.36.344-.234.094-.984.094h-2.782v.609h-.64v-.61h-1.188l-.5-.812h1.688v-.828h.64v.828h2.828q.36 0 .47-.047.093-.047.155-.14.047-.094.047-.282 0-.14-.03-.36zm-.828-4.107.11-.844q.75.187 1.156.734.406.547.406 1.39 0 1.063-.656 1.688-.657.61-1.829.61-1.218 0-1.89-.625-.688-.625-.688-1.625 0-.985.672-1.594.656-.61 1.86-.61h.218v3.61q.797-.047 1.22-.453.42-.406.42-1.016 0-.453-.233-.765-.235-.313-.766-.5zM94 129.576v-2.703q-.61.063-.906.313-.47.39-.47 1.015 0 .563.376.953.375.375 1 .422zm2.89-4.563h-4.843v-.734h.734q-.516-.281-.672-.516-.172-.25-.172-.531 0-.422.266-.844l.766.282q-.172.296-.172.609 0 .266.156.484.156.203.453.297.438.14.953.14h2.531v.813zm.11-2.497-6.906-1.937v-.656L97 121.86v.656zm-.11-3.404h-4.203v.719h-.64v-.719h-.516q-.484 0-.719-.078-.312-.125-.515-.422t-.203-.844q0-.343.093-.765l.703.125q-.046.265-.046.484 0 .375.171.531.157.157.594.157h.438v-.938h.64v.938h4.203v.812zm0-2.373H90.22v-.828h6.671v.828zm0-5.26h-.703q.813.563.813 1.532 0 .421-.156.796-.172.375-.422.563-.25.172-.61.25-.234.047-.765.047h-3v-.828h2.687q.64 0 .875-.047.313-.078.5-.328.188-.25.188-.61 0-.375-.188-.703-.187-.328-.515-.453-.329-.14-.954-.14h-2.593v-.813h4.843v.734zm-.734-3.813.719-.109q.078.344.078.61 0 .453-.14.703-.141.234-.36.343-.234.094-.984.094h-2.782v.61h-.64v-.61h-1.188l-.5-.812h1.688v-.829h.64v.829h2.828q.36 0 .47-.047.093-.047.155-.14.047-.095.047-.282 0-.14-.03-.36zm0-2.591.719-.11q.078.344.078.61 0 .453-.14.703-.141.234-.36.344-.234.093-.984.093h-2.782v.61h-.64v-.61h-1.188l-.5-.812h1.688v-.828h.64v.828h2.828q.36 0 .47-.047.093-.047.155-.14.047-.094.047-.282 0-.14-.03-.36zm-.828-4.107.11-.844q.75.187 1.156.734.406.547.406 1.39 0 1.063-.656 1.688-.657.61-1.829.61-1.218 0-1.89-.625-.688-.625-.688-1.625 0-.985.672-1.594.656-.61 1.86-.61h.218v3.61q.797-.047 1.22-.453.42-.406.42-1.016 0-.453-.233-.765-.235-.313-.766-.5zM94 103.655v-2.703q-.61.062-.906.312-.47.391-.47 1.016 0 .563.376.953.375.375 1 .422zm2.89-4.563h-4.843v-.734h.734q-.516-.281-.672-.516-.172-.25-.172-.531 0-.422.266-.844l.766.281q-.172.297-.172.61 0 .265.156.484.156.203.453.297.438.14.953.14h2.531v.813z"/><path fill="none" d="M151.466 105.016h93.827v37.165h-93.827z"/><path fill="#000" d="M162.938 128.096V117.61h7.078v1.235h-5.687v3.25h4.922v1.234h-4.922v4.766h-1.39zm8.703 0v-7.594h1.156v1.14q.453-.796.828-1.046.375-.266.813-.266.656 0 1.328.406l-.438 1.204q-.468-.282-.953-.282-.422 0-.765.25-.329.25-.47.703-.218.688-.218 1.5v3.985h-1.281zm9.85-.938q-.72.61-1.376.86-.656.25-1.422.25-1.25 0-1.922-.61-.671-.61-.671-1.562 0-.563.25-1.016.25-.469.656-.75.422-.281.937-.422.375-.093 1.141-.187 1.562-.188 2.297-.453.015-.266.015-.328 0-.797-.375-1.11-.484-.437-1.453-.437-.922 0-1.359.328-.422.312-.625 1.11l-1.266-.173q.172-.797.563-1.297.39-.5 1.14-.765.75-.266 1.72-.266.984 0 1.593.235.61.218.89.562.282.344.407.875.062.328.062 1.188v1.718q0 1.797.078 2.282.079.468.329.906h-1.344q-.203-.406-.266-.938zm-.11-2.875q-.703.282-2.094.485-.797.109-1.125.265-.328.14-.516.422-.171.266-.171.594 0 .516.39.86.39.343 1.14.343.735 0 1.313-.312.594-.329.86-.891.203-.438.203-1.297v-.469zm3.307 3.813v-7.594h1.156v1.063q.344-.563.938-.891.61-.344 1.36-.344.843 0 1.374.344.547.344.766.984.906-1.328 2.36-1.328 1.124 0 1.734.625.61.625.61 1.922v5.219h-1.282v-4.781q0-.782-.125-1.11-.125-.344-.453-.547-.328-.218-.782-.218-.796 0-1.328.53-.53.532-.53 1.704v4.422h-1.282v-4.938q0-.86-.313-1.281-.312-.437-1.03-.437-.548 0-1.017.296-.453.282-.671.829-.204.546-.204 1.593v3.938h-1.28zm17.412-2.453 1.328.172q-.312 1.171-1.172 1.812-.843.64-2.172.64-1.671 0-2.656-1.015-.969-1.031-.969-2.89 0-1.922.985-2.97 1-1.062 2.578-1.062 1.516 0 2.484 1.031.97 1.032.97 2.922 0 .11-.017.344h-5.656q.063 1.25.703 1.922.641.656 1.594.656.703 0 1.203-.36.5-.374.797-1.202zm-4.234-2.078h4.25q-.094-.954-.485-1.438-.625-.75-1.609-.75-.875 0-1.484.594-.61.594-.672 1.594zm8.588 4.53-2.328-7.593h1.328l1.203 4.375.454 1.64.39-1.577 1.219-4.438h1.328l1.125 4.406.39 1.453.438-1.468 1.297-4.391h1.25l-2.375 7.594h-1.344l-1.203-4.547-.297-1.297-1.53 5.844h-1.345zm8.694-3.796q0-2.11 1.172-3.125.984-.844 2.39-.844 1.579 0 2.563 1.031 1 1.016 1 2.829 0 1.468-.438 2.312-.437.828-1.28 1.297-.845.469-1.845.469-1.593 0-2.578-1.016-.984-1.031-.984-2.953zm1.328 0q0 1.453.625 2.187.64.72 1.61.72.968 0 1.593-.72.64-.734.64-2.234 0-1.406-.64-2.125-.64-.734-1.594-.734-.968 0-1.609.718-.625.72-.625 2.188zm7.292 3.797v-7.594h1.156v1.14q.453-.796.828-1.046.375-.266.813-.266.656 0 1.328.406l-.438 1.204q-.468-.282-.953-.282-.422 0-.765.25-.329.25-.47.703-.218.688-.218 1.5v3.985h-1.281zm4.896 0V117.61h1.297v5.97l3.047-3.079h1.672l-2.907 2.813 3.188 4.78h-1.578l-2.516-3.89-.906.875v3.016h-1.297z"/><path fill="none" d="M307.598 205.488v-99.401h30.71v99.401z"/><path fill="#000" d="M327.418 190.951h-6.703v-.75h.64q-.375-.266-.562-.594-.188-.343-.188-.812 0-.625.328-1.094.313-.469.907-.703.578-.25 1.265-.25.735 0 1.328.266.594.265.922.78.313.5.313 1.063 0 .407-.172.735t-.438.53h2.36v.83zm-4.25-.75q.937 0 1.39-.375.438-.375.438-.922t-.453-.922q-.469-.39-1.438-.39-.937 0-1.39.375-.453.375-.453.906t.484.937q.484.391 1.422.391zm2.39-4.422h-6.671v-.828h6.671v.828zm-.593-5.244q.39.453.547.875.156.421.156.906 0 .797-.39 1.219-.391.421-1 .421-.345 0-.641-.156-.297-.156-.47-.422-.187-.265-.28-.593-.063-.235-.11-.72-.125-1-.281-1.468h-.219q-.5 0-.703.234-.281.313-.281.922 0 .578.203.86.203.28.719.406l-.11.797q-.515-.11-.828-.36-.328-.25-.5-.718-.172-.47-.172-1.094 0-.625.157-1 .14-.39.359-.578.219-.188.562-.25.204-.047.75-.047h1.094q1.14 0 1.453-.047.297-.062.578-.219v.86q-.25.125-.593.172zm-1.828.062q.171.453.296 1.344.079.5.172.719.094.203.266.312.172.11.39.11.329 0 .547-.235.22-.25.22-.734 0-.47-.204-.828-.219-.375-.578-.563-.266-.125-.813-.125h-.296zm1.687-3.891.719-.11q.078.344.078.61 0 .453-.14.703-.141.235-.36.344-.234.094-.984.094h-2.782v.609h-.64v-.61h-1.188l-.5-.812h1.688v-.828h.64v.828h2.828q.36 0 .47-.047.093-.047.155-.14.047-.094.047-.282 0-.14-.031-.359zm.734-.998h-4.203v.719h-.64v-.719h-.516q-.484 0-.719-.078-.312-.125-.515-.422t-.203-.844q0-.343.093-.765l.703.125q-.046.265-.046.484 0 .375.171.531.157.157.594.157h.438v-.938h.64v.938h4.203v.812zm-2.421-2.092q-1.344 0-1.985-.75-.547-.625-.547-1.515 0-1 .657-1.625.656-.64 1.812-.64.938 0 1.469.28.531.282.828.813.297.531.297 1.172 0 1.015-.64 1.64-.657.625-1.891.625zm0-.843q.937 0 1.406-.407.453-.406.453-1.015 0-.61-.469-1.016t-1.422-.406q-.89 0-1.343.406-.47.406-.47 1.016t.47 1.015q.453.407 1.375.407zm2.421-4.641h-4.843v-.735h.734q-.516-.28-.672-.515-.172-.25-.172-.532 0-.421.266-.843l.766.281q-.172.297-.172.61 0 .265.156.484.156.203.453.297.438.14.953.14h2.531v.813zm0-3.107h-4.843v-.734h.687q-.36-.234-.578-.61-.219-.374-.219-.859 0-.547.235-.89.218-.344.625-.485-.86-.562-.86-1.484 0-.719.407-1.11.39-.39 1.218-.39h3.328v.812h-3.046q-.485 0-.704.094-.218.078-.343.281-.14.204-.14.485 0 .515.343.86.328.327 1.078.327h2.812v.828h-3.14q-.547 0-.813.204-.281.187-.281.656 0 .344.188.64.171.282.53.422.345.125 1 .125h2.516v.828zm-2-7.458h-.828v-2.515h.828v2.515zm1.407-6.575q.39.454.547.875.156.422.156.907 0 .797-.39 1.218-.391.422-1 .422-.345 0-.641-.156-.297-.156-.47-.422-.187-.265-.28-.594-.063-.234-.11-.718-.125-1-.281-1.47h-.219q-.5 0-.703.235-.281.313-.281.922 0 .578.203.86.203.28.719.406l-.11.797q-.515-.11-.828-.36-.328-.25-.5-.718-.172-.47-.172-1.094 0-.625.157-1 .14-.39.359-.578.219-.188.562-.25.204-.047.75-.047h1.094q1.14 0 1.453-.047.297-.063.578-.219v.86q-.25.125-.593.171zm-1.828.063q.171.453.296 1.344.079.5.172.718.094.204.266.313.172.11.39.11.329 0 .547-.235.22-.25.22-.734 0-.47-.204-.829-.219-.375-.578-.562-.266-.125-.813-.125h-.296zm2.828-1.954.11-.796q.374-.047.546-.282.219-.297.219-.828 0-.562-.235-.875-.218-.312-.625-.422-.25-.062-1.062-.062.64.547.64 1.344 0 1-.718 1.546-.72.547-1.735.547-.687 0-1.265-.25-.594-.25-.907-.718-.328-.485-.328-1.125 0-.86.703-1.422h-.593v-.75h4.187q1.125 0 1.594.234.484.219.75.719.281.5.281 1.234 0 .86-.39 1.39-.391.532-1.172.516zm-2.907-.671q.954 0 1.391-.375.438-.391.438-.954 0-.562-.438-.937-.437-.39-1.375-.39-.875 0-1.328.39-.453.39-.453.953 0 .547.453.938.437.375 1.312.375zm2.5-4.657h-4.843v-.75h.687q-.797-.531-.797-1.531 0-.438.172-.797.156-.375.406-.547.25-.188.61-.266.219-.047.797-.047h2.968v.829h-2.937q-.5 0-.75.093-.25.094-.39.344-.157.234-.157.563 0 .515.328.906.328.375 1.266.375h2.64v.828zm-2.421-4.891q-1.344 0-1.985-.75-.547-.625-.547-1.516 0-1 .657-1.625.656-.64 1.812-.64.938 0 1.469.28.531.282.828.813.297.532.297 1.172 0 1.016-.64 1.64-.657.626-1.891.626zm0-.844q.937 0 1.406-.406.453-.406.453-1.016t-.469-1.015q-.469-.407-1.422-.407-.89 0-1.343.407-.47.406-.47 1.015 0 .61.47 1.016.453.406 1.375.406zm.984-4.313-.14-.812q.5-.078.765-.39.25-.313.25-.86 0-.578-.234-.844-.235-.281-.532-.281-.281 0-.437.25-.11.172-.281.844-.235.89-.391 1.25-.172.343-.469.53-.297.173-.64.173-.329 0-.594-.14-.281-.157-.469-.407-.14-.203-.234-.531-.11-.329-.11-.704 0-.578.172-1 .156-.437.438-.64.28-.203.75-.281l.11.796q-.376.063-.58.329-.202.265-.202.734 0 .562.187.812.172.235.438.235.156 0 .281-.094.125-.11.219-.312.047-.125.203-.735.234-.86.39-1.203.141-.344.422-.531.282-.203.704-.203.406 0 .78.234.36.234.563.688.188.453.188 1.015 0 .953-.39 1.453-.391.485-1.157.625zm.703-6.789.719-.11q.078.345.078.61 0 .453-.14.703-.141.235-.36.344-.234.094-.984.094h-2.782v.61h-.64v-.61h-1.188l-.5-.813h1.688v-.828h.64v.828h2.828q.36 0 .47-.046.093-.047.155-.141.047-.094.047-.281 0-.141-.031-.36zm-5-.81h-.937v-.813h.937v.813zm5.734 0h-4.843v-.813h4.843v.813zm-1.765-5.213.094-.813q.843.125 1.312.672.469.547.469 1.344 0 .984-.64 1.594-.657.61-1.876.61-.781 0-1.36-.267-.593-.265-.89-.78-.297-.532-.297-1.157 0-.797.407-1.297.39-.5 1.125-.64l.125.796q-.485.11-.72.407-.25.28-.25.703 0 .61.438 1t1.407.39q.968 0 1.421-.375.438-.375.438-.984 0-.469-.297-.797-.297-.328-.906-.406z"/><path fill="none" d="M307.596 452.83v-99.402h30.708v99.401z"/><path fill="#000" d="M327.415 436.473h-6.703v-.75h.64q-.374-.266-.562-.594-.187-.344-.187-.813 0-.625.328-1.093.312-.47.906-.703.578-.25 1.266-.25.734 0 1.328.265.594.266.922.781.312.5.312 1.063 0 .406-.172.734-.172.328-.437.532h2.36v.828zm-4.25-.75q.938 0 1.39-.375.438-.375.438-.922t-.453-.922q-.469-.39-1.437-.39-.938 0-1.391.374-.453.375-.453.907 0 .53.484.937.485.39 1.422.39zm2.39-4.423h-6.671v-.828h6.672v.828zm-.593-5.244q.39.453.547.875.156.422.156.906 0 .797-.39 1.22-.391.421-1 .421-.344 0-.641-.156-.297-.156-.469-.422-.187-.266-.281-.594-.063-.234-.11-.719-.124-1-.28-1.468h-.22q-.5 0-.703.234-.28.313-.28.922 0 .578.202.86.203.28.719.406l-.11.796q-.515-.109-.827-.359-.329-.25-.5-.719-.172-.468-.172-1.093t.156-1q.14-.391.36-.579.218-.187.562-.25.203-.046.75-.046h1.094q1.14 0 1.453-.047.297-.063.578-.22v.86q-.25.125-.594.172zm-1.828.063q.172.453.297 1.343.078.5.172.72.093.202.265.312.172.109.39.109.329 0 .548-.234.219-.25.219-.735 0-.468-.204-.828-.218-.375-.578-.562-.265-.125-.812-.125h-.297zm1.687-3.891.72-.11q.077.344.077.61 0 .453-.14.703-.141.234-.36.344-.234.093-.984.093h-2.781v.61h-.641v-.61h-1.187l-.5-.812h1.687v-.828h.64v.828h2.829q.36 0 .469-.047.093-.047.156-.14.047-.094.047-.282 0-.14-.032-.36zm.735-.998h-4.203v.718h-.641v-.718h-.516q-.484 0-.718-.078-.313-.125-.516-.422t-.203-.844q0-.344.094-.766l.703.125q-.047.266-.047.485 0 .375.172.531.156.156.594.156h.437v-.937h.64v.937h4.204v.813zm-2.422-2.092q-1.344 0-1.984-.75-.547-.625-.547-1.516 0-1 .656-1.625.656-.64 1.812-.64.938 0 1.47.281.53.281.827.813.297.53.297 1.171 0 1.016-.64 1.641-.657.625-1.891.625zm0-.844q.937 0 1.406-.406.453-.406.453-1.016 0-.609-.468-1.015-.47-.406-1.422-.406-.891 0-1.344.406-.469.406-.469 1.015 0 .61.469 1.016.453.406 1.375.406zm2.422-4.64h-4.844v-.735h.734q-.515-.281-.671-.516-.172-.25-.172-.53 0-.423.265-.845l.766.282q-.172.296-.172.609 0 .266.156.484.157.203.453.297.438.14.954.14h2.53v.813zm0-3.107h-4.844v-.734h.688q-.36-.235-.579-.61-.218-.375-.218-.86 0-.546.234-.89.219-.344.625-.484-.86-.563-.86-1.485 0-.718.407-1.109.39-.39 1.219-.39h3.328v.812h-3.047q-.484 0-.703.094-.219.078-.344.281-.14.203-.14.484 0 .516.343.86.328.328 1.078.328h2.813v.828h-3.14q-.548 0-.813.203-.282.188-.282.656 0 .344.188.641.172.281.531.422.344.125 1 .125h2.516v.828zm-2-7.458h-.828v-2.516h.828v2.516zm.562-3.09-.14-.813q.5-.078.765-.39.25-.313.25-.86 0-.578-.234-.844-.234-.281-.531-.281-.282 0-.438.25-.11.172-.281.844-.234.89-.39 1.25-.173.343-.47.53-.296.173-.64.173-.328 0-.594-.14-.281-.157-.469-.407-.14-.203-.234-.531-.11-.329-.11-.704 0-.578.173-1 .156-.437.437-.64t.75-.281l.11.796q-.376.063-.579.329-.203.265-.203.734 0 .562.188.812.172.235.437.235.156 0 .281-.094.125-.11.22-.312.046-.125.202-.735.235-.86.39-1.203.142-.344.423-.531.281-.203.703-.203.406 0 .781.234.36.234.563.688.187.453.187 1.015 0 .953-.39 1.453-.391.485-1.157.625zm3.297-4.993h-6.703v-.75h.64q-.374-.265-.562-.594-.187-.343-.187-.812 0-.625.328-1.094.312-.469.906-.703.578-.25 1.266-.25.734 0 1.328.266.594.265.922.78.312.5.312 1.063 0 .407-.172.735t-.437.531h2.36v.828zm-4.25-.75q.938 0 1.39-.375.438-.375.438-.922t-.453-.922q-.469-.39-1.437-.39-.938 0-1.391.375-.453.375-.453.906t.484.938q.485.39 1.422.39zm.828-7.75.11-.844q.75.188 1.156.734.406.547.406 1.391 0 1.063-.656 1.688-.656.609-1.828.609-1.219 0-1.89-.625-.688-.625-.688-1.625 0-.984.672-1.594.656-.61 1.859-.61h.219v3.61q.797-.047 1.218-.453.422-.406.422-1.016 0-.453-.234-.765-.234-.313-.766-.5zm-1.328 2.687v-2.703q-.61.063-.906.313-.469.39-.469 1.015 0 .563.375.953.375.375 1 .422zm1.125-7.719.094-.812q.844.125 1.312.672.47.546.47 1.343 0 .985-.641 1.594-.657.61-1.875.61-.782 0-1.36-.266-.594-.266-.89-.781-.297-.532-.297-1.157 0-.797.406-1.297.39-.5 1.125-.64l.125.797q-.484.11-.719.406-.25.281-.25.703 0 .61.438 1 .437.39 1.406.39.969 0 1.422-.374.437-.375.437-.985 0-.468-.297-.797-.296-.328-.906-.406zm-3.969-1.523h-.937v-.813h.937v.813zm5.735 0h-4.844v-.813h4.844v.813zm0-2.26h-4.203v.719h-.641v-.72h-.516q-.484 0-.718-.077-.313-.125-.516-.422t-.203-.844q0-.344.094-.766l.703.125q-.047.266-.047.485 0 .375.172.531.156.156.594.156h.437v-.937h.64v.937h4.204v.813zm-5.735-2.404h-.937v-.813h.937v.813zm5.735 0h-4.844v-.813h4.844v.813zm-1.766-5.213.094-.813q.844.125 1.312.672.47.547.47 1.344 0 .984-.641 1.594-.657.609-1.875.609-.782 0-1.36-.266-.594-.265-.89-.781-.297-.531-.297-1.156 0-.797.406-1.297.39-.5 1.125-.64l.125.796q-.484.11-.719.406-.25.282-.25.704 0 .609.438 1 .437.39 1.406.39.969 0 1.422-.375.437-.375.437-.984 0-.469-.297-.797-.296-.328-.906-.406z"/></g></svg>