<svg xmlns="http://www.w3.org/2000/svg" width="16" height="16" viewBox="0 0 16 16">
  <path fill="#C75450" fill-rule="evenodd" d="M12.5747152,11.8852806 C11.4741474,13.1817355 9.83247882,14.0044386 7.99865879,14.0044386 C5.03907292,14.0044386 2.57997332,11.8615894 2.08820756,9.0427473 L3.94774327,9.10768372 C4.43372186,10.8898575 6.06393114,12.2000519 8.00015362,12.2000519 C9.30149237,12.2000519 10.4645985,11.6082097 11.2349873,10.6790094 L9.05000019,8.71167959 L14.0431479,8.44999981 L14.3048222,13.4430431 L12.5747152,11.8852806 Z M3.42785637,4.11741586 C4.52839138,2.82452748 6.16775464,2.00443857 7.99865879,2.00443857 C10.918604,2.00443857 13.3513802,4.09026967 13.8882946,6.8532307 L12.0226389,6.78808057 C11.5024872,5.05935553 9.89838095,3.8000774 8.00015362,3.8000774 C6.69867367,3.8000774 5.53545628,4.39204806 4.76506921,5.32142241 L6.95482203,7.29304326 L1.96167436,7.55472304 L1.70000005,2.56167973 L3.42785637,4.11741586 Z" transform="rotate(3 8.002 8.004)"/>
</svg>
